<svg width="512" height="512" viewBox="0 0 512 512" fill="none" xmlns="http://www.w3.org/2000/svg">
<path d="M70.8513 301.56V211.32H100.131V224.76H85.2513V288.12H100.131V301.56H70.8513ZM172.056 291L189.24 220.92H207.48L224.856 291H210.168L206.808 275.16H190.104L186.744 291H172.056ZM192.504 263.64H204.312L200.952 246.744C200.504 244.312 200.024 241.912 199.512 239.544C199.064 237.112 198.712 235.224 198.456 233.88C198.2 235.224 197.848 237.08 197.4 239.448C197.016 241.816 196.568 244.216 196.056 246.648L192.504 263.64ZM261.491 291.96C257.139 291.96 253.715 290.712 251.219 288.216C248.723 285.656 247.475 282.104 247.475 277.56L250.835 280.92H247.475V291H233.555V220.92H247.955V235.32L247.475 248.28H250.835L247.475 251.64C247.475 247.096 248.723 243.576 251.219 241.08C253.715 238.52 257.139 237.24 261.491 237.24C266.803 237.24 271.059 239.128 274.259 242.904C277.459 246.616 279.059 251.608 279.059 257.88V271.32C279.059 277.656 277.459 282.68 274.259 286.392C271.059 290.104 266.803 291.96 261.491 291.96ZM256.307 279.48C258.995 279.48 261.043 278.744 262.451 277.272C263.923 275.736 264.659 273.592 264.659 270.84V258.36C264.659 255.608 263.923 253.496 262.451 252.024C261.043 250.488 258.995 249.72 256.307 249.72C253.683 249.72 251.635 250.488 250.163 252.024C248.691 253.496 247.955 255.608 247.955 258.36V270.84C247.955 273.592 248.691 275.736 250.163 277.272C251.635 278.744 253.683 279.48 256.307 279.48ZM313.581 291.96C306.477 291.96 300.909 290.04 296.877 286.2C292.909 282.36 290.925 277.112 290.925 270.456V238.2H305.325V270.36C305.325 273.304 306.029 275.576 307.437 277.176C308.845 278.712 310.893 279.48 313.581 279.48C316.205 279.48 318.221 278.712 319.629 277.176C321.101 275.576 321.837 273.304 321.837 270.36V238.2H336.237V270.456C336.237 277.176 334.221 282.456 330.189 286.296C326.157 290.072 320.621 291.96 313.581 291.96ZM411.906 301.56V288.12H426.786V224.76H411.906V211.32H441.186V301.56H411.906Z" fill="#00FF00"/>
</svg>
